<svg xmlns="http://www.w3.org/2000/svg" version="1.1" xmlns:xlink="http://www.w3.org/1999/xlink" xmlns:svgjs="http://svgjs.dev/svgjs" width="1500" height="306" viewBox="0 0 1500 306"><g transform="matrix(1,0,0,1,-0.9090909090909918,-0.05896736402632996)"><svg viewBox="0 0 396 81" data-background-color="#ffffff" preserveAspectRatio="xMidYMid meet" height="306" width="1500" xmlns="http://www.w3.org/2000/svg" xmlns:xlink="http://www.w3.org/1999/xlink"><g id="tight-bounds" transform="matrix(1,0,0,1,0.2400000000000091,0.01560900812461341)"><svg viewBox="0 0 395.52 80.96878198375076" height="80.96878198375076" width="395.52"><g><svg viewBox="0 0 682.1905639855073 139.6544777677855" height="80.96878198375076" width="395.52"><g><rect width="6.773877381386992" height="139.6544777677855" x="262.1640233020602" y="0" fill="#152232" opacity="1" stroke-width="0" stroke="transparent" fill-opacity="1" class="rect-qz-0" data-fill-palette-color="primary" rx="1%" id="qz-0" data-palette-color="#152232"></rect></g><g transform="matrix(1,0,0,1,286.67056398550733,0.3473991984273255)"><svg viewBox="0 0 395.52 138.95967937093084" height="138.95967937093084" width="395.52"><g id="textblocktransform"><svg viewBox="0 0 395.52 138.95967937093084" height="138.95967937093084" width="395.52" id="textblock"><g><svg viewBox="0 0 395.52 75.1142144989757" height="75.1142144989757" width="395.52"><g transform="matrix(1,0,0,1,0,0)"><svg width="395.52" viewBox="0.44166666667 -44.15 235.07833333333002 44.65" height="75.1142144989757" data-palette-color="#152232"><path d="M13.65 0L7.6 0Q7.4 0 7.35-0.25L7.35-0.25 0.45-34.6Q0.4-34.8 0.65-34.8L0.65-34.8 6.3-34.8Q6.5-34.8 6.55-34.6L6.55-34.6 10.65-11.7 14.65-34.6Q14.7-34.8 14.9-34.8L14.9-34.8 20.5-34.8Q20.75-34.8 20.7-34.6L20.7-34.6 13.9-0.25Q13.85 0 13.65 0L13.65 0ZM19.85-0.25L19.85-0.25 26.05-34.6Q26.1-34.8 26.3-34.8L26.3-34.8 33.55-34.8Q33.75-34.8 33.8-34.6L33.8-34.6 39.75-0.25Q39.8 0 39.55 0L39.55 0 34 0Q33.8 0 33.75-0.25L33.75-0.25 33.2-3.9 26.4-3.9 25.85-0.25Q25.8 0 25.6 0L25.6 0 20.05 0Q19.85 0 19.85-0.25ZM29.65-23.3L27.4-9.25 32.2-9.25 30.15-23.3 29.85-25.15 29.65-23.3ZM48.8 0L43.15 0Q42.9 0 42.9-0.25L42.9-0.25 42.95-34.6Q42.95-34.8 43.15-34.8L43.15-34.8 48.75-34.8Q48.95-34.8 48.95-34.6L48.95-34.6 49-0.25Q49 0 48.8 0L48.8 0ZM69.99 0.5L69.99 0.5Q67.34 0.5 65.09-0.88 62.84-2.25 61.52-4.55 60.19-6.85 60.19-9.6L60.19-9.6 60.29-34.6Q60.29-34.8 60.49-34.8L60.49-34.8 66.09-34.8Q66.29-34.8 66.29-34.6L66.29-34.6 66.29-9.6Q66.29-7.9 67.37-6.73 68.44-5.55 69.99-5.55L69.99-5.55Q71.59-5.55 72.67-6.73 73.74-7.9 73.74-9.6L73.74-9.6 73.74-34.6Q73.74-34.8 73.94-34.8L73.94-34.8 79.54-34.8Q79.74-34.8 79.74-34.6L79.74-34.6 79.84-9.6Q79.84-6.8 78.52-4.5 77.19-2.2 74.97-0.85 72.74 0.5 69.99 0.5ZM89.64 0L83.99 0Q83.79 0 83.79-0.25L83.79-0.25 83.89-34.6Q83.89-34.8 84.09-34.8L84.09-34.8 90.19-34.8Q90.39-34.8 90.54-34.6L90.54-34.6 95.09-28 99.64-34.6Q99.79-34.8 99.99-34.8L99.99-34.8 106.14-34.8Q106.34-34.8 106.34-34.6L106.34-34.6 106.44-0.25Q106.44 0 106.24 0L106.24 0 100.59 0Q100.39 0 100.39-0.25L100.39-0.25 100.34-25.75 95.09-18.15 89.89-25.75 89.84-0.25Q89.84 0 89.64 0L89.64 0ZM108.94-0.25L108.94-0.25 115.14-34.6Q115.19-34.8 115.39-34.8L115.39-34.8 122.64-34.8Q122.84-34.8 122.89-34.6L122.89-34.6 128.84-0.25Q128.89 0 128.64 0L128.64 0 123.09 0Q122.89 0 122.84-0.25L122.84-0.25 122.29-3.9 115.49-3.9 114.94-0.25Q114.89 0 114.69 0L114.69 0 109.14 0Q108.94 0 108.94-0.25ZM118.74-23.3L116.49-9.25 121.29-9.25 119.24-23.3 118.94-25.15 118.74-23.3ZM145.73 0L140.08 0Q139.88 0 139.88-0.25L139.88-0.25 139.98-34.6Q139.98-34.8 140.18-34.8L140.18-34.8 146.28-34.8Q146.48-34.8 146.63-34.6L146.63-34.6 151.18-28 155.73-34.6Q155.88-34.8 156.08-34.8L156.08-34.8 162.23-34.8Q162.43-34.8 162.43-34.6L162.43-34.6 162.53-0.25Q162.53 0 162.33 0L162.33 0 156.68 0Q156.48 0 156.48-0.25L156.48-0.25 156.43-25.75 151.18-18.15 145.98-25.75 145.93-0.25Q145.93 0 145.73 0L145.73 0ZM165.03-0.25L165.03-0.25 171.23-34.6Q171.28-34.8 171.48-34.8L171.48-34.8 178.73-34.8Q178.93-34.8 178.98-34.6L178.98-34.6 184.93-0.25Q184.98 0 184.73 0L184.73 0 179.18 0Q178.98 0 178.93-0.25L178.93-0.25 178.38-3.9 171.58-3.9 171.03-0.25Q170.98 0 170.78 0L170.78 0 165.23 0Q165.03 0 165.03-0.25ZM174.83-23.3L172.58-9.25 177.38-9.25 175.33-23.3 175.03-25.15 174.83-23.3ZM179.48-37.65L179.48-37.65Q178.08-37.65 176.9-38.18 175.73-38.7 174.78-39.23 173.83-39.75 172.98-39.75L172.98-39.75Q172.03-39.75 171.53-39.28 171.03-38.8 171.03-38.1L171.03-38.1Q171.03-37.9 170.83-37.9L170.83-37.9 166.33-37.9Q166.13-37.9 166.13-38.1L166.13-38.1Q166.13-39.4 166.9-40.78 167.68-42.15 169.1-43.1 170.53-44.05 172.53-44.05L172.53-44.05Q173.98-44.05 175.08-43.58 176.18-43.1 177.05-42.6 177.93-42.1 178.58-42.1L178.58-42.1Q179.28-42.1 179.8-42.55 180.33-43 180.33-43.95L180.33-43.95Q180.33-44.15 180.53-44.15L180.53-44.15 185.03-44.15Q185.23-44.15 185.23-43.95L185.23-43.95Q185.23-41.9 184.4-40.5 183.58-39.1 182.25-38.38 180.93-37.65 179.48-37.65ZM196.28 0.5L196.28 0.5Q193.58 0.5 191.35-0.88 189.13-2.25 187.78-4.53 186.43-6.8 186.43-9.55L186.43-9.55 186.47-25.4Q186.47-28.15 187.8-30.4 189.13-32.65 191.38-34 193.63-35.35 196.28-35.35L196.28-35.35Q198.97-35.35 201.18-34 203.38-32.65 204.7-30.4 206.03-28.15 206.03-25.4L206.03-25.4 206.08-9.55Q206.08-6.8 204.75-4.53 203.43-2.25 201.2-0.88 198.97 0.5 196.28 0.5ZM196.28-5.55L196.28-5.55Q197.78-5.55 198.9-6.78 200.03-8 200.03-9.55L200.03-9.55 199.97-25.4Q199.97-27.05 198.93-28.2 197.88-29.35 196.28-29.35L196.28-29.35Q194.72-29.35 193.63-28.23 192.53-27.1 192.53-25.4L192.53-25.4 192.53-9.55Q192.53-7.9 193.63-6.73 194.72-5.55 196.28-5.55ZM228.52-9.2L222.97-9.2Q222.72-9.2 222.72-9.4L222.72-9.4 222.72-12.1Q222.72-14.1 223.65-16.13 224.57-18.15 226.17-19.75L226.17-19.75Q227.67-21.25 228.37-22.08 229.07-22.9 229.27-23.6 229.47-24.3 229.47-25.25L229.47-25.25Q229.47-27 228.42-28.18 227.37-29.35 225.77-29.35L225.77-29.35Q224.17-29.35 223.09-28.18 222.02-27 222.02-25.25L222.02-25.25 222.02-21.6Q222.02-21.4 221.82-21.4L221.82-21.4 216.17-21.4Q215.97-21.4 215.97-21.6L215.97-21.6 215.97-25.25Q215.97-28.05 217.3-30.35 218.62-32.65 220.84-34 223.07-35.35 225.77-35.35L225.77-35.35Q228.47-35.35 230.7-34 232.92-32.65 234.22-30.35 235.52-28.05 235.52-25.25L235.52-25.25Q235.52-23.6 235.17-22.33 234.82-21.05 233.87-19.68 232.92-18.3 231.07-16.25L231.07-16.25Q229.82-15 229.3-14 228.77-13 228.77-11.8L228.77-11.8 228.77-9.4Q228.77-9.2 228.52-9.2L228.52-9.2ZM228.52 0L222.97 0Q222.72 0 222.72-0.25L222.72-0.25 222.72-5.8Q222.72-6 222.97-6L222.97-6 228.52-6Q228.77-6 228.77-5.8L228.77-5.8 228.77-0.25Q228.77 0 228.52 0L228.52 0Z" opacity="1" transform="matrix(1,0,0,1,0,0)" fill="#152232" class="wordmark-text-0" data-fill-palette-color="primary" id="text-0"></path></svg></g></svg></g><g transform="matrix(1,0,0,1,0,92.84687780103589)"><svg viewBox="0 0 395.52 46.112801569894955" height="46.112801569894955" width="395.52"><g transform="matrix(1,0,0,1,0,0)"><svg width="395.52" viewBox="1.75 -39.65 433.1 50.5" height="46.112801569894955" data-palette-color="#5ebc67"><path d="M20.2-2.1Q23-2.05 25.05-1.18 27.1-0.3 28.95 1.4L28.95 1.4 24.95 6.25Q22.8 3.4 20.33 1.98 17.85 0.55 14.1 0.55L14.1 0.55Q8.35 0.55 5.05-3.98 1.75-8.5 1.75-17.25L1.75-17.25Q1.75-26.1 5.08-30.68 8.4-35.25 14.45-35.25L14.45-35.25Q20.5-35.25 23.83-30.75 27.15-26.25 27.15-17.3L27.15-17.3Q27.15-11.1 25.3-7.6 23.45-4.1 20.2-2.1L20.2-2.1ZM8.45-17.25Q8.45-10.1 9.95-7.13 11.45-4.15 14.45-4.15L14.45-4.15Q17.55-4.15 19.03-7.1 20.5-10.05 20.5-17.3L20.5-17.3Q20.5-24.45 19.03-27.45 17.55-30.45 14.45-30.45L14.45-30.45Q11.4-30.45 9.93-27.45 8.45-24.45 8.45-17.25L8.45-17.25ZM49.9-26.45L49.9 0 44.55 0 44.25-3.35Q43-1.3 41.45-0.28 39.9 0.75 37.85 0.75L37.85 0.75Q34.95 0.75 33.27-1.3 31.6-3.35 31.6-6.65L31.6-6.65 31.6-26.45 37.75-26.45 37.75-7Q37.75-3.9 39.85-3.9L39.85-3.9Q41.05-3.9 42-4.83 42.95-5.75 43.75-7.45L43.75-7.45 43.75-26.45 49.9-26.45ZM72.5-6.4Q72.5-5.1 72.84-4.48 73.2-3.85 74-3.45L74-3.45 72.75 0.65Q70.7 0.4 69.47-0.45 68.25-1.3 67.65-3.05L67.65-3.05Q65.34 0.75 61.2 0.75L61.2 0.75Q57.9 0.75 55.95-1.48 54-3.7 54-7.4L54-7.4Q54-11.7 56.67-13.95 59.35-16.2 64.45-16.2L64.45-16.2 66.5-16.2 66.5-18.05Q66.5-20.55 65.62-21.58 64.75-22.6 62.8-22.6L62.8-22.6Q60.45-22.6 56.95-21.3L56.95-21.3 55.55-25.3Q57.55-26.2 59.7-26.68 61.85-27.15 63.8-27.15L63.8-27.15Q72.5-27.15 72.5-18.35L72.5-18.35 72.5-6.4ZM62.85-3.7Q65.25-3.7 66.5-7L66.5-7 66.5-12.55 65.05-12.55Q62.5-12.55 61.32-11.4 60.15-10.25 60.15-7.85L60.15-7.85Q60.15-5.8 60.85-4.75 61.55-3.7 62.85-3.7L62.85-3.7ZM83.89 0.75Q81.19 0.75 79.62-0.93 78.04-2.6 78.04-5.4L78.04-5.4 78.04-37.05 84.19-37.7 84.19-5.65Q84.19-5 84.49-4.6 84.79-4.2 85.39-4.2L85.39-4.2Q85.74-4.2 86.07-4.3 86.39-4.4 86.49-4.4L86.49-4.4 87.69-0.2Q85.99 0.75 83.89 0.75L83.89 0.75ZM104.49-26.45L109.84-26.45 109.84 10.85 103.69 10.15 103.69-2.65Q101.59 0.75 97.99 0.75L97.99 0.75Q93.99 0.75 91.79-2.9 89.59-6.55 89.59-13.2L89.59-13.2Q89.59-17.45 90.72-20.6 91.84-23.75 93.84-25.45 95.84-27.15 98.49-27.15L98.49-27.15Q101.94-27.15 104.19-23.95L104.19-23.95 104.49-26.45ZM99.74-3.9Q100.94-3.9 101.89-4.7 102.84-5.5 103.69-7.1L103.69-7.1 103.69-19.8Q101.99-22.55 99.99-22.55L99.99-22.55Q98.19-22.55 97.09-20.33 95.99-18.1 95.99-13.25L95.99-13.25Q95.99-8.1 96.97-6 97.94-3.9 99.74-3.9L99.74-3.9ZM133.69-26.45L133.69 0 128.34 0 128.04-3.35Q126.79-1.3 125.24-0.28 123.69 0.75 121.64 0.75L121.64 0.75Q118.74 0.75 117.06-1.3 115.39-3.35 115.39-6.65L115.39-6.65 115.39-26.45 121.54-26.45 121.54-7Q121.54-3.9 123.64-3.9L123.64-3.9Q124.84-3.9 125.79-4.83 126.74-5.75 127.54-7.45L127.54-7.45 127.54-26.45 133.69-26.45ZM158.24-13.85Q158.24-13.4 158.09-11.3L158.09-11.3 144.44-11.3Q144.64-7.2 145.86-5.58 147.09-3.95 149.34-3.95L149.34-3.95Q150.89-3.95 152.14-4.48 153.39-5 154.84-6.15L154.84-6.15 157.39-2.65Q153.89 0.75 148.99 0.75L148.99 0.75Q143.79 0.75 141.01-2.85 138.24-6.45 138.24-13L138.24-13Q138.24-19.55 140.89-23.35 143.54-27.15 148.39-27.15L148.39-27.15Q153.04-27.15 155.64-23.78 158.24-20.4 158.24-13.85L158.24-13.85ZM152.24-15.3L152.24-15.65Q152.24-19.4 151.34-21.13 150.44-22.85 148.44-22.85L148.44-22.85Q146.59-22.85 145.61-21.18 144.64-19.5 144.44-15.3L144.44-15.3 152.24-15.3ZM174.18-27.1Q175.33-27.1 176.23-26.75L176.23-26.75 175.23-20.85Q174.23-21.1 173.38-21.1L173.38-21.1Q171.48-21.1 170.38-19.45 169.28-17.8 168.68-14.55L168.68-14.55 168.68 0 162.53 0 162.53-26.45 167.88-26.45 168.33-21.85Q170.18-27.1 174.18-27.1L174.18-27.1ZM198.43-27.15Q200.58-27.15 202.33-26.43 204.08-25.7 205.68-24.15L205.68-24.15 203.03-20.65Q201.93-21.55 200.95-21.98 199.98-22.4 198.83-22.4L198.83-22.4Q196.58-22.4 195.43-20.28 194.28-18.15 194.28-13.1L194.28-13.1Q194.28-8.2 195.45-6.2 196.63-4.2 198.83-4.2L198.83-4.2Q199.93-4.2 200.83-4.6 201.73-5 202.93-5.85L202.93-5.85 205.68-2.3Q202.48 0.75 198.53 0.75L198.53 0.75Q193.43 0.75 190.6-2.73 187.78-6.2 187.78-13L187.78-13Q187.78-17.4 189.08-20.6 190.38-23.8 192.8-25.48 195.23-27.15 198.43-27.15L198.43-27.15ZM218.13-27.15Q223.13-27.15 225.9-23.65 228.68-20.15 228.68-13.25L228.68-13.25Q228.68-6.65 225.88-2.95 223.08 0.75 218.13 0.75L218.13 0.75Q213.18 0.75 210.38-2.88 207.58-6.5 207.58-13.25L207.58-13.25Q207.58-19.95 210.38-23.55 213.18-27.15 218.13-27.15L218.13-27.15ZM218.13-22.5Q215.98-22.5 214.98-20.38 213.98-18.25 213.98-13.25L213.98-13.25Q213.98-8.2 214.98-6.08 215.98-3.95 218.13-3.95L218.13-3.95Q220.28-3.95 221.28-6.08 222.28-8.2 222.28-13.25L222.28-13.25Q222.28-18.3 221.28-20.4 220.28-22.5 218.13-22.5L218.13-22.5ZM233.22-26.45L239.37-26.45 239.37 0 233.22 0 233.22-26.45ZM236.27-39.65Q237.92-39.65 238.95-38.6 239.97-37.55 239.97-35.9L239.97-35.9Q239.97-34.3 238.95-33.25 237.92-32.2 236.27-32.2L236.27-32.2Q234.62-32.2 233.6-33.25 232.57-34.3 232.57-35.9L232.57-35.9Q232.57-37.55 233.6-38.6 234.62-39.65 236.27-39.65L236.27-39.65ZM252.42-27.15Q257.12-27.15 260.37-24.05L260.37-24.05 258.02-20.7Q256.62-21.7 255.37-22.2 254.12-22.7 252.82-22.7L252.82-22.7Q251.37-22.7 250.55-21.93 249.72-21.15 249.72-19.8L249.72-19.8Q249.72-18.45 250.65-17.63 251.57-16.8 254.37-15.7L254.37-15.7Q257.82-14.35 259.47-12.5 261.12-10.65 261.12-7.55L261.12-7.55Q261.12-3.7 258.42-1.48 255.72 0.75 251.57 0.75L251.57 0.75Q248.87 0.75 246.6-0.23 244.32-1.2 242.62-2.95L242.62-2.95 245.62-6.25Q248.42-3.8 251.32-3.8L251.32-3.8Q252.97-3.8 253.92-4.67 254.87-5.55 254.87-7.1L254.87-7.1Q254.87-8.25 254.47-8.97 254.07-9.7 253.07-10.33 252.07-10.95 250.07-11.7L250.07-11.7Q246.62-13.05 245.15-14.85 243.67-16.65 243.67-19.45L243.67-19.45Q243.67-22.8 246.05-24.98 248.42-27.15 252.42-27.15L252.42-27.15ZM281.87-6.4Q281.87-5.1 282.22-4.48 282.57-3.85 283.37-3.45L283.37-3.45 282.12 0.65Q280.07 0.4 278.84-0.45 277.62-1.3 277.02-3.05L277.02-3.05Q274.72 0.75 270.57 0.75L270.57 0.75Q267.27 0.75 265.32-1.48 263.37-3.7 263.37-7.4L263.37-7.4Q263.37-11.7 266.04-13.95 268.72-16.2 273.82-16.2L273.82-16.2 275.87-16.2 275.87-18.05Q275.87-20.55 274.99-21.58 274.12-22.6 272.17-22.6L272.17-22.6Q269.82-22.6 266.32-21.3L266.32-21.3 264.92-25.3Q266.92-26.2 269.07-26.68 271.22-27.15 273.17-27.15L273.17-27.15Q281.87-27.15 281.87-18.35L281.87-18.35 281.87-6.4ZM272.22-3.7Q274.62-3.7 275.87-7L275.87-7 275.87-12.55 274.42-12.55Q271.87-12.55 270.69-11.4 269.52-10.25 269.52-7.85L269.52-7.85Q269.52-5.8 270.22-4.75 270.92-3.7 272.22-3.7L272.22-3.7ZM308.66-5L310.81-1.2Q308.36 0.75 305.06 0.75L305.06 0.75Q301.61 0.75 299.81-1.23 298.01-3.2 298.01-6.6L298.01-6.6 298.01-22 294.91-22 294.91-26.45 298.01-26.45 298.01-32.3 304.16-33.05 304.16-26.45 309.16-26.45 308.56-22 304.16-22 304.16-6.6Q304.16-4.2 306.21-4.2L306.21-4.2Q306.86-4.2 307.36-4.38 307.86-4.55 308.66-5L308.66-5ZM330.26-6.4Q330.26-5.1 330.61-4.48 330.96-3.85 331.76-3.45L331.76-3.45 330.51 0.65Q328.46 0.4 327.24-0.45 326.01-1.3 325.41-3.05L325.41-3.05Q323.11 0.75 318.96 0.75L318.96 0.75Q315.66 0.75 313.71-1.48 311.76-3.7 311.76-7.4L311.76-7.4Q311.76-11.7 314.44-13.95 317.11-16.2 322.21-16.2L322.21-16.2 324.26-16.2 324.26-18.05Q324.26-20.55 323.39-21.58 322.51-22.6 320.56-22.6L320.56-22.6Q318.21-22.6 314.71-21.3L314.71-21.3 313.31-25.3Q315.31-26.2 317.46-26.68 319.61-27.15 321.56-27.15L321.56-27.15Q330.26-27.15 330.26-18.35L330.26-18.35 330.26-6.4ZM320.61-3.7Q323.01-3.7 324.26-7L324.26-7 324.26-12.55 322.81-12.55Q320.26-12.55 319.09-11.4 317.91-10.25 317.91-7.85L317.91-7.85Q317.91-5.8 318.61-4.75 319.31-3.7 320.61-3.7L320.61-3.7ZM359.71-27.15Q362.36-27.15 363.96-25.1 365.56-23.05 365.56-19.6L365.56-19.6 365.56 0 359.51 0 359.51-18.95Q359.51-20.85 359.01-21.68 358.51-22.5 357.56-22.5L357.56-22.5Q355.61-22.5 353.81-18.8L353.81-18.8 353.81 0 347.81 0 347.81-18.95Q347.81-22.5 345.91-22.5L345.91-22.5Q343.86-22.5 342.11-18.8L342.11-18.8 342.11 0 336.06 0 336.06-26.45 341.41-26.45 341.81-23.05Q344.41-27.15 348.06-27.15L348.06-27.15Q349.91-27.15 351.26-26 352.61-24.85 353.31-22.75L353.31-22.75Q355.96-27.15 359.71-27.15L359.71-27.15ZM380.46-27.15Q385.46-27.15 388.23-23.65 391.01-20.15 391.01-13.25L391.01-13.25Q391.01-6.65 388.21-2.95 385.41 0.75 380.46 0.75L380.46 0.75Q375.51 0.75 372.71-2.88 369.91-6.5 369.91-13.25L369.91-13.25Q369.91-19.95 372.71-23.55 375.51-27.15 380.46-27.15L380.46-27.15ZM380.46-22.5Q378.31-22.5 377.31-20.38 376.31-18.25 376.31-13.25L376.31-13.25Q376.31-8.2 377.31-6.08 378.31-3.95 380.46-3.95L380.46-3.95Q382.61-3.95 383.61-6.08 384.61-8.2 384.61-13.25L384.61-13.25Q384.61-18.3 383.61-20.4 382.61-22.5 380.46-22.5L380.46-22.5ZM422.3-6.4Q422.3-5.1 422.65-4.48 423-3.85 423.8-3.45L423.8-3.45 422.55 0.65Q420.5 0.4 419.28-0.45 418.05-1.3 417.45-3.05L417.45-3.05Q415.15 0.75 411 0.75L411 0.75Q407.7 0.75 405.75-1.48 403.8-3.7 403.8-7.4L403.8-7.4Q403.8-11.7 406.48-13.95 409.15-16.2 414.25-16.2L414.25-16.2 416.3-16.2 416.3-18.05Q416.3-20.55 415.43-21.58 414.55-22.6 412.6-22.6L412.6-22.6Q410.25-22.6 406.75-21.3L406.75-21.3 405.35-25.3Q407.35-26.2 409.5-26.68 411.65-27.15 413.6-27.15L413.6-27.15Q422.3-27.15 422.3-18.35L422.3-18.35 422.3-6.4ZM412.65-3.7Q415.05-3.7 416.3-7L416.3-7 416.3-12.55 414.85-12.55Q412.3-12.55 411.13-11.4 409.95-10.25 409.95-7.85L409.95-7.85Q409.95-5.8 410.65-4.75 411.35-3.7 412.65-3.7L412.65-3.7ZM428.1-26.45L434.25-26.45 434.25 0 428.1 0 428.1-26.45ZM431.15-39.65Q432.8-39.65 433.82-38.6 434.85-37.55 434.85-35.9L434.85-35.9Q434.85-34.3 433.82-33.25 432.8-32.2 431.15-32.2L431.15-32.2Q429.5-32.2 428.47-33.25 427.45-34.3 427.45-35.9L427.45-35.9Q427.45-37.55 428.47-38.6 429.5-39.65 431.15-39.65L431.15-39.65Z" opacity="1" transform="matrix(1,0,0,1,0,0)" fill="#5ebc67" class="slogan-text-1" data-fill-palette-color="secondary" id="text-1"></path></svg></g></svg></g></svg></g></svg></g><g transform="matrix(1,0,0,1,0,15.189641217502334)"><svg viewBox="0 0 244.43135999999996 109.27519533278083" height="109.27519533278083" width="244.43135999999996"><g><svg xmlns="http://www.w3.org/2000/svg" xmlns:xlink="http://www.w3.org/1999/xlink" version="1.0" x="0" y="0" viewBox="5 32.65300000000001 90.02058228862379 40.24449527900199" enable-background="new 0 0 100 100" xml:space="preserve" height="109.27519533278083" width="244.43135999999996" class="icon-icon-0" data-fill-palette-color="accent" id="icon-0"><g fill="#5ebc67" data-fill-palette-color="accent"><path fill="#5ebc67" d="M79.831 68.229c-1.856-2.528-4.197-4.547-6.745-6.347-1.355-0.954-2.818-1.743-4.122-2.777-1.387-1.101-2.801-2.17-4.228-3.216-3.878-2.849-7.881-5.52-11.81-8.298-1.639-1.16-2.377-2.861-2.487-4.833-0.047-0.854 0.358-1.18 1.245-1.098 0.8 0.075 1.592 0.199 2.359 0.443 1.374 0.439 2.775 0.727 4.225 0.736 0.71 0.004 1.387-0.165 1.971-0.547 1.36-0.883 2.504-2.001 3.421-3.343 0.021-0.028-0.018-0.097-0.042-0.201-0.955 0-1.923 0.015-2.89-0.008-0.341-0.008-0.562 0.118-0.789 0.354-0.628 0.655-1.415 1.052-2.281 1.284-1.757 0.468-3.396-0.014-5.188-0.659 1.573-0.155 3.113 0.316 4.447-1.005-1.141 0-2.099-0.036-3.055 0.009-0.949 0.046-1.727 0.779-2.732 0.698 1.096 0.722 2.148 1.433 3.104 2.31-0.525-0.064-1.012-0.284-1.512-0.312-0.753-0.044-1.198-0.495-1.646-0.99-0.11-0.125-0.206-0.26-0.315-0.385-0.95-1.081-1.79-2.261-2.91-3.186-0.203-0.167-0.373-0.441-0.757-0.253 1.011 1.257 1.712 2.691 2.523 4.06-0.036 0.048-0.072 0.096-0.107 0.142-0.983-0.067-1.759-0.45-2.381-1.14-0.142-0.158-0.278-0.333-0.405-0.525-0.428-0.644-0.781-1.35-1.252-1.938-0.657-0.823-1.261-1.68-1.884-2.524-0.212-0.287-0.483-0.44-0.8-0.555-0.984-0.359-1.974-0.706-2.949-1.087-1.347-0.528-2.72-0.375-4.094-0.192-0.948 0.126-1.432 0.768-1.328 1.838 0.08 0.827 0.145 1.668 0.015 2.488-0.135 0.854 0.009 1.665 0.254 2.453 0.449 1.447 0.96 2.875 1.461 4.307 0.567 1.62 1.179 3.238 2.154 4.649 2.021 2.925 4.33 5.624 7.04 7.932 3.181 2.712 6.453 5.316 9.66 7.999 1.868 1.564 3.724 3.151 5.282 5.041 0.695 0.841 1.312 1.719 1.176 2.914 0.264 0.02 0.482 0.049 0.701 0.051 1.773 0.026 3.547 0.05 5.32 0.069 0.797 0.009 0.841-0.057 0.737-0.854-0.044-0.335-0.169-0.638-0.313-0.938-0.276-0.578-0.651-1.089-1.051-1.588-1.42-1.766-3.211-3.131-4.963-4.527-3.829-3.054-7.713-6.038-11.554-9.077-1.454-1.148-2.969-2.231-4.256-3.577-1.34-1.402-2.589-2.883-3.822-4.382-0.966-1.173-1.628-2.455-2.069-3.916-0.446-1.478-0.25-2.844 0.287-4.205 0.361-0.912 1.044-1.201 1.994-0.916 0.792 0.24 1.582 0.491 2.363 0.762 0.798 0.277 1.584 0.589 2.376 0.885-0.238 0.11-0.452 0.109-0.667 0.11-1.404 0.009-1.683 0.248-2.115 1.583-0.216 0.667-0.066 1.253 0.205 1.836 0.222 0.478 0.473 0.94 0.736 1.393 1.135 1.954 2.487 3.759 4.263 5.153 5.768 4.527 11.819 8.676 17.646 13.125 1.673 1.278 3.352 2.546 4.804 4.082 1.371 1.45 2.688 2.941 2.78 5.204 2.048 0 4.042 0 6.034 0.001 0.771 0 0.81-0.046 0.684-0.8C81.346 70.542 80.65 69.349 79.831 68.229z" data-fill-palette-color="accent"></path><path fill="#5ebc67" d="M27.882 67.337c-0.868-1.695-1.802-3.356-2.637-5.066-1.553-3.185-2.857-6.423-3.188-10.032-0.317-3.458 0.062-6.784 1.013-10.085 0.265-0.919 0.608-1.811 0.965-2.693-0.429-0.228-0.681 0.027-0.957 0.199-1.291 0.807-2.471 1.781-3.762 2.578-1.325 0.819-2.383 1.859-3.213 3.156-0.5 0.779-1.196 1.421-1.587 2.276 0.328 0.019 0.531-0.187 0.731-0.382 0.026-0.025 0.052-0.049 0.079-0.075 0.002-0.002 0.005-0.003 0.007-0.006 0.032-0.029 0.065-0.056 0.097-0.084 1.523-1.199 2.894-2.573 4.359-3.837 0.212-0.183 0.391-0.445 0.702-0.469 0.167 0.312-0.071 0.403-0.195 0.516-1.853 1.672-3.472 3.564-5.132 5.42-1.143 1.279-2.292 2.567-3.66 3.609-1.002 0.764-1.843 1.638-2.572 2.66-1.256 1.759-2.572 3.477-3.879 5.234 0.116 0.021 0.185 0.057 0.217 0.035 0.186-0.119 0.364-0.25 0.541-0.382 2.885-2.15 5.309-4.757 7.506-7.586 1.034-1.33 2.057-2.668 3.085-4.002 0.05 0.08 0.1 0.16 0.15 0.24-0.786 1.263-1.571 2.529-2.358 3.791-2.244 3.599-4.719 7.019-7.659 10.093C6.036 62.964 5.52 63.464 5 63.96v4.642c0.294-0.461 0.581-0.926 0.939-1.339 1.563-1.798 3.013-3.681 4.261-5.712 2.3-3.738 4.321-7.63 6.284-11.551 0.727-1.454 1.519-2.869 2.468-4.192 0.056 0.04 0.112 0.079 0.168 0.119-0.278 0.572-0.585 1.132-0.827 1.717-1.367 3.314-2.791 6.604-3.949 10.002-0.633 1.855-1.348 3.68-2.182 5.453-0.227 0.485-0.367 0.979-0.442 1.5-0.064 0.438-0.121 0.876-0.191 1.313-0.36 2.238-1.165 4.258-2.872 5.833-0.028 0.025-0.009 0.103-0.016 0.232 2.052 0 4.098-0.01 6.145 0.01 0.356 0.002 0.558-0.168 0.76-0.409 0.832-0.998 1.198-2.165 1.267-3.441 0.078-1.416-0.065-2.823-0.238-4.225-0.223-1.812-0.434-3.588 0.042-5.423 0.566-2.189 0.693-4.478 1.371-6.65 0.729-2.342 1.339-4.728 2.342-6.978 0.444-0.995 0.936-1.968 1.597-2.872 0.226 0.371-0.021 0.637-0.126 0.898-0.944 2.313-1.51 4.731-1.947 7.179-0.44 2.467-0.319 4.971-0.379 7.461-0.005 0.164 0.025 0.333 0.065 0.492 0.294 1.18 0.582 2.36 0.897 3.534 0.538 1.998 1.313 3.925 1.798 5.938 0.369 1.529 0.609 3.061-0.488 4.437-0.016 0.021 0.029 0.089 0.064 0.188 1.921 0 3.86-0.002 5.798 0 0.842 0 0.985-0.112 1.191-0.912 0.091-0.354 0.11-0.703 0.061-1.068C28.726 69.135 28.336 68.221 27.882 67.337z" data-fill-palette-color="accent"></path><path fill="#5ebc67" d="M14.505 47.684c0.001 0 0.002 0 0.004-0.002 0.002-0.004 0.005-0.008 0.006-0.013-0.008-0.001-0.016-0.001-0.024-0.001C14.497 47.674 14.5 47.68 14.505 47.684z" data-fill-palette-color="accent"></path><path fill="#5ebc67" d="M14.489 47.78c0.012-0.003 0.021-0.008 0.027-0.015 0.004-0.005 0.005-0.011 0.006-0.016 0.001-0.002 0.003-0.004 0.004-0.008 0-0.008 0-0.015-0.004-0.024 0-0.001 0-0.001 0-0.002-0.003-0.01-0.009-0.02-0.017-0.031-0.037 0.019-0.074 0.039-0.111 0.059C14.426 47.757 14.463 47.789 14.489 47.78z" data-fill-palette-color="accent"></path><path fill="#5ebc67" d="M94.996 72.358c-0.134-0.822-0.309-1.646-0.669-2.385-0.715-1.457-0.714-2.984-0.605-4.536 0.098-1.437 0.137-2.876 0.106-4.316-0.011-0.475-0.161-0.83-0.455-1.193-1.201-1.482-2.36-2.999-3.562-4.482-0.549-0.676-1.029-1.415-1.674-2.03-0.17 0.218-0.098 0.416-0.115 0.597-0.113 1.188-0.621 1.615-1.799 1.517-0.701-0.059-1.341-0.321-1.963-0.614-1.42-0.674-2.814-1.403-4.243-2.053-2.938-1.337-5.987-2.395-9.04-3.432-1.293-0.439-2.254-1.133-2.639-2.489-0.081-0.28-0.242-0.483-0.496-0.633-0.201-0.118-0.448-0.202-0.509-0.342 1.134-2.403 2.229-4.722 3.376-7.15-1.094 0-2.034 0.027-2.971-0.011-0.449-0.02-0.688 0.126-0.904 0.52-0.892 1.617-1.821 3.212-2.735 4.815-0.429 0.754-0.427 0.756-1.248 0.6-0.733-0.14-1.468-0.263-2.195-0.432-0.467-0.11-0.931-0.108-1.401-0.118-0.447-0.011-0.789 0.171-1.095 0.546 0.602 0.529 1.265 0.921 1.912 1.32 1.688 1.037 3.335 2.132 5.195 2.886 1.421 0.575 2.883 1.149 3.908 2.407 1.493 1.832 3.358 3.294 4.998 4.98 0.623 0.639 1.344 1.131 2.112 1.586 3.688 2.178 6.92 4.863 9.288 8.484 1.23 1.878 2.371 3.801 2.609 6.104 0.037 0.342 0.277 0.286 0.488 0.289 1.965 0.034 3.931 0.049 5.897 0.104C95.032 72.908 95.058 72.736 94.996 72.358z" data-fill-palette-color="accent"></path><path fill="#5ebc67" d="M54.489 70.436c-0.393-0.672-0.874-1.279-1.397-1.853-1.945-2.135-4.142-4.001-6.318-5.89-2.931-2.541-5.87-5.068-8.34-8.087-1.545-1.89-3-3.821-3.961-6.093-1.001-2.362-1.873-4.776-2.836-7.153-0.156-0.385-0.215-0.795-0.241-1.214-0.062-0.994-0.153-1.985-0.246-2.977-0.134-1.453 0.144-2.857 0.993-4.1 0.071-0.104 0.208-0.199 0.026-0.416-0.574 0.348-1.144 0.726-1.743 1.05-1.08 0.583-1.652 1.503-1.872 2.677-0.03 0.165-0.051 0.329-0.066 0.493-0.128 1.469 0.049 2.929 0.097 4.393 0.043 1.358 0.395 2.611 0.89 3.852 0.685 1.716 1.314 3.455 2.026 5.161 0.66 1.579 1.407 3.119 2.393 4.533 1.893 2.716 4.119 5.139 6.471 7.454 1.936 1.902 3.942 3.736 5.754 5.764 0.666 0.743 1.309 1.509 1.763 2.401 0.289 0.562 0.55 1.152 0.174 2.003 2.081 0 4.018 0 5.953 0.001 0.95 0 1.15-0.259 0.866-1.177C54.785 70.973 54.643 70.695 54.489 70.436z" data-fill-palette-color="accent"></path><path fill="#5ebc67" d="M40.693 68.826c-1.387-1.98-3.098-3.687-4.675-5.506-1.994-2.303-3.959-4.629-5.462-7.297-1.274-2.268-2.245-4.674-3.066-7.134-0.411-1.227-0.876-2.445-1.053-3.739-0.343-2.495-0.056-4.972 0.176-7.454 0.037-0.406 0.385-0.716 0.32-1.14-0.166-0.012-0.247 0.06-0.334 0.128-1.083 0.876-1.681 2.035-1.933 3.377-0.179 0.951-0.301 1.913-0.464 2.867-0.289 1.676-0.39 3.368-0.132 5.045 0.503 3.297 1.506 6.44 2.979 9.44 1.459 2.971 3.378 5.637 5.292 8.312 0.851 1.191 1.749 2.353 2.385 3.682 0.416 0.866 0.657 1.756 0.115 2.868 2.151 0 4.144 0.002 6.136-0.001 0.671-0.001 0.8-0.138 0.822-0.815 0.013-0.397-0.084-0.771-0.237-1.13C41.331 69.796 41.027 69.302 40.693 68.826z" data-fill-palette-color="accent"></path><path fill="#5ebc67" d="M71.833 47.306c0.773 0.395 1.508 0.218 2.203-0.185 0.762-0.442 1.548-0.875 1.81-1.83 0.466-1.7 0.935-3.4 1.426-5.094 0.089-0.305 0.037-0.512-0.14-0.758-0.295-0.412-0.622-0.656-1.172-0.582-0.407 0.056-0.831 0.044-1.242-0.001-0.492-0.055-0.721 0.117-0.894 0.597-0.66 1.84-1.381 3.659-2.062 5.49-0.255 0.684-0.573 1.315-1.215 1.831C70.98 47.077 71.441 47.107 71.833 47.306z" data-fill-palette-color="accent"></path><path fill="#5ebc67" d="M75.627 48.175c-0.339-0.013-0.673-0.048-1.143 0.084 1.777 0.556 3.368 1.229 4.993 1.81 0.727 0.26 1.475 0.461 2.268 0.428 1.087-0.045 1.682-0.532 1.908-1.598 0.04-0.19 0.04-0.388 0.092-0.574 0.079-0.294 0.012-0.53-0.178-0.767-1.093-1.355-2.172-2.72-3.32-4.162-0.167 0.28-0.178 0.5-0.217 0.715-0.146 0.816-0.274 1.636-0.566 2.416-0.392 1.042-1.163 1.586-2.26 1.651C76.681 48.211 76.152 48.198 75.627 48.175z" data-fill-palette-color="accent"></path><path fill="#5ebc67" d="M20.285 39.799c0.846-0.351 1.47-0.783 2.139-1.166C21.312 38.195 20.846 38.919 20.285 39.799z" data-fill-palette-color="accent"></path></g></svg></g></svg></g></svg></g><defs></defs></svg><rect width="395.52" height="80.96878198375076" fill="none" stroke="none" visibility="hidden"></rect></g></svg></g></svg>